<?xml version="1.0" encoding="UTF-8" standalone="no"?>
<!-- Created with Inkscape (http://www.inkscape.org/) -->

<svg
   xmlns:dc="http://purl.org/dc/elements/1.1/"
   xmlns:cc="http://creativecommons.org/ns#"
   xmlns:rdf="http://www.w3.org/1999/02/22-rdf-syntax-ns#"
   xmlns:svg="http://www.w3.org/2000/svg"
   xmlns="http://www.w3.org/2000/svg"
   xmlns:sodipodi="http://sodipodi.sourceforge.net/DTD/sodipodi-0.dtd"
   xmlns:inkscape="http://www.inkscape.org/namespaces/inkscape"
   id="svg2"
   version="1.1"
   inkscape:version="0.48.1 r9760"
   width="739.79332"
   height="176.66485"
   xml:space="preserve"
   sodipodi:docname="blowup-persistence-local.pdf"><metadata
     id="metadata8"><rdf:RDF><cc:Work
         rdf:about=""><dc:format>image/svg+xml</dc:format><dc:type
           rdf:resource="http://purl.org/dc/dcmitype/StillImage" /><dc:title></dc:title></cc:Work></rdf:RDF></metadata><defs
     id="defs6" /><sodipodi:namedview
     pagecolor="#ffffff"
     bordercolor="#666666"
     borderopacity="1"
     objecttolerance="10"
     gridtolerance="10"
     guidetolerance="10"
     inkscape:pageopacity="0"
     inkscape:pageshadow="2"
     inkscape:window-width="640"
     inkscape:window-height="480"
     id="namedview4"
     showgrid="false"
     inkscape:zoom="0.6745127"
     inkscape:cx="387.4796"
     inkscape:cy="135.87332"
     inkscape:window-x="0"
     inkscape:window-y="26"
     inkscape:window-maximized="0"
     inkscape:current-layer="g12" /><g
     id="g10"
     inkscape:groupmode="layer"
     inkscape:label="blowup-persistence"
     transform="matrix(1.25,0,0,-1.25,0,176.66485)"><g
       id="g12"><g
         id="g136"
         transform="matrix(1,0,0,-0.964867,0,141.33188)"><path
           d="m 165.621,31.594 66.145,0.239"
           style="fill:#666666;fill-opacity:1;fill-rule:nonzero;stroke:#1a1a1a;stroke-opacity:1;stroke-width:4.642279;stroke-linecap:butt;stroke-linejoin:miter;stroke-miterlimit:4;stroke-dasharray:none"
           id="path138" /></g><g
         id="g140"
         transform="matrix(1,0,0,-0.964867,0,141.33188)"><path
           d="M 98.137,31.161 164.285,31.4"
           style="fill:#000000;fill-opacity:1;fill-rule:nonzero;stroke:#1a1a1a;stroke-opacity:1;stroke-width:4.642279;stroke-linecap:butt;stroke-linejoin:miter;stroke-miterlimit:4;stroke-dasharray:none"
           id="path142" /></g><g
         id="g144"
         transform="matrix(1,0,0,-0.964867,0,141.33188)"><path
           d="m 95.445,114.192 66.145,0.522"
           style="fill:#1a1a1a;fill-opacity:1;fill-rule:nonzero;stroke:#1a1a1a;stroke-opacity:1;stroke-width:4.713949;stroke-linecap:butt;stroke-linejoin:miter;stroke-miterlimit:4;stroke-dasharray:none"
           id="path146" /></g><g
         id="g148"
         transform="matrix(1,0,0,-0.964867,0,141.33188)"><path
           d="m 26.469,114.192 66.144,0.522"
           style="fill:#1a1a1a;fill-opacity:1;fill-rule:nonzero;stroke:#1a1a1a;stroke-opacity:1;stroke-width:4.713949;stroke-linecap:butt;stroke-linejoin:miter;stroke-miterlimit:4;stroke-dasharray:none"
           id="path150" /></g><g
         id="g152"
         transform="matrix(-0.0961716,-0.928976,-1,0.0705816,0,141.33188)"><path
           d="m 37.482,-101.007 c -0.003,6.098 -5.363,11.039 -11.977,11.042 -6.615,0 -11.978,-4.945 -11.978,-11.043 -10e-4,-6.098 5.363,-11.043 11.977,-11.042 6.615,0 11.977,4.945 11.978,11.043 z"
           style="fill:#dab1ef;fill-opacity:1;fill-rule:nonzero;stroke:#1a1a1a;stroke-opacity:1;stroke-width:4.942221;stroke-linecap:butt;stroke-linejoin:miter;stroke-miterlimit:4;stroke-dasharray:none"
           id="path154" /></g><g
         id="g156"
         transform="matrix(-0.0961716,-0.928976,-1,0.0705816,0,141.33188)"><path
           d="m 27.226,-236.001 c -0.004,6.098 -5.364,11.043 -11.978,11.042 -6.614,0 -11.977,-4.942 -11.978,-11.039 -10e-4,-6.102 5.364,-11.043 11.978,-11.043 6.614,0.001 11.977,4.942 11.978,11.04 z"
           style="fill:#dab1ef;fill-opacity:1;fill-rule:nonzero;stroke:#1a1a1a;stroke-opacity:1;stroke-width:4.942221;stroke-linecap:butt;stroke-linejoin:miter;stroke-miterlimit:4;stroke-dasharray:none"
           id="path158" /></g><g
         id="g160"
         transform="matrix(0.112951,0.928976,1,-0.082896,0,141.33188)"><path
           d="m -3.052,165.032 c 10e-4,6.09 -5.353,11.027 -11.959,11.027 -6.606,0 -11.962,-4.938 -11.963,-11.028 0.004,-6.09 5.357,-11.027 11.963,-11.027 6.606,0 11.958,4.938 11.959,11.028 z"
           style="fill:#dab1ef;fill-opacity:1;fill-rule:nonzero;stroke:#1a1a1a;stroke-opacity:1;stroke-width:4.935435;stroke-linecap:butt;stroke-linejoin:miter;stroke-miterlimit:4;stroke-dasharray:none"
           id="path162" /></g><path
         d="m 94.711,17.672 c -6.098,0.429 -10.527,5.761 -9.891,11.906 0.637,6.145 6.098,10.777 12.196,10.348 6.097,-0.43 10.523,-5.762 9.89,-11.907 -0.636,-6.144 -6.097,-10.777 -12.195,-10.347 z"
         style="fill:#8fa6d7;fill-opacity:1;fill-rule:nonzero;stroke:none"
         id="path164" /><g
         id="g166"
         transform="matrix(-0.0961716,-0.928976,-1,0.0705816,0,141.33188)"><path
           d="m 125.005,-106.733 c 0.001,6.098 -5.363,11.043 -11.977,11.043 -6.615,-0.001 -11.977,-4.946 -11.978,-11.044 -10e-4,-6.097 5.363,-11.039 11.977,-11.042 6.615,0 11.977,4.946 11.978,11.043 z"
           style="fill:none;stroke:#1a1a1a;stroke-opacity:0.994118;stroke-width:4.942167;stroke-linecap:butt;stroke-linejoin:miter;stroke-miterlimit:4;stroke-dasharray:none"
           id="path168" /></g><path
         d="M 29.219,39.906 C 35.309,39.402 39.637,34.015 38.891,27.879 38.145,21.742 32.605,17.18 26.516,17.683 20.426,18.187 16.094,23.57 16.84,29.707 17.586,35.844 23.129,40.41 29.219,39.906 z"
         style="fill:#8fa6d7;fill-opacity:1;fill-rule:nonzero;stroke:none"
         id="path170" /><g
         id="g172"
         transform="matrix(0.112951,0.928976,1,-0.082896,0,141.33188)"><path
           d="m -105.509,41.136 c 0,6.09 -5.358,11.023 -11.964,11.023 -6.606,0 -11.957,-4.934 -11.958,-11.024 -10e-4,-6.09 5.353,-11.027 11.958,-11.027 6.606,0 11.963,4.938 11.964,11.028 z"
           style="fill:none;stroke:#1a1a1a;stroke-opacity:0.994118;stroke-width:4.935381;stroke-linecap:butt;stroke-linejoin:miter;stroke-miterlimit:4;stroke-dasharray:none"
           id="path174" /></g><path
         d="m 165.195,39.906 c 6.09,-0.504 10.422,-5.891 9.676,-12.027 -0.746,-6.137 -6.289,-10.699 -12.379,-10.196 -6.09,0.504 -10.418,5.887 -9.672,12.024 0.746,6.137 6.285,10.703 12.375,10.199 z"
         style="fill:#8fa6d7;fill-opacity:1;fill-rule:nonzero;stroke:none"
         id="path176" /><g
         id="g178"
         transform="matrix(0.112951,0.928976,1,-0.082896,0,141.33188)"><path
           d="m -93.497,175.756 c 0.001,6.09 -5.357,11.027 -11.963,11.027 -6.606,0 -11.958,-4.939 -11.959,-11.028 -0.001,-6.09 5.354,-11.023 11.959,-11.023 6.606,0 11.962,4.934 11.963,11.024 z"
           style="fill:none;stroke:#1a1a1a;stroke-opacity:0.994118;stroke-width:4.935381;stroke-linecap:butt;stroke-linejoin:miter;stroke-miterlimit:4;stroke-dasharray:none"
           id="path180" /></g><g
         id="g186"
         transform="matrix(1,0,0,-0.498428,0,141.33188)"><path
           d="m 188.977,223.319 c 0,31.059 -41.411,56.239 -92.493,56.239 -51.086,0 -92.496,-25.18 -92.496,-56.239 0,-31.066 41.41,-56.247 92.496,-56.247 51.082,0 92.493,25.181 92.493,56.247 z"
           style="fill:none;stroke:#8fa6d7;stroke-opacity:1;stroke-width:7.971733;stroke-linecap:butt;stroke-linejoin:round;stroke-miterlimit:4;stroke-dasharray:none"
           id="path188" /></g><g
         id="g190"
         transform="matrix(1,0,0,-0.498428,0,141.33188)"><path
           d="m 258.715,60.228 c 0,31.059 -41.414,56.247 -92.496,56.247 -51.082,0 -92.496,-25.188 -92.496,-56.247 0,-31.058 41.414,-56.239 92.496,-56.239 51.082,0 92.496,25.181 92.496,56.239 z"
           style="fill:none;stroke:#dab1ef;stroke-opacity:1;stroke-width:7.9706;stroke-linecap:butt;stroke-linejoin:round;stroke-miterlimit:4;stroke-dasharray:none"
           id="path192" /></g></g></g></svg>