<?xml version="1.0" encoding="UTF-8" standalone="no"?>
<!-- Created with Inkscape (http://www.inkscape.org/) -->

<svg
   xmlns:dc="http://purl.org/dc/elements/1.1/"
   xmlns:cc="http://creativecommons.org/ns#"
   xmlns:rdf="http://www.w3.org/1999/02/22-rdf-syntax-ns#"
   xmlns:svg="http://www.w3.org/2000/svg"
   xmlns="http://www.w3.org/2000/svg"
   xmlns:sodipodi="http://sodipodi.sourceforge.net/DTD/sodipodi-0.dtd"
   xmlns:inkscape="http://www.inkscape.org/namespaces/inkscape"
   id="svg2"
   version="1.1"
   inkscape:version="0.48.1 r9760"
   width="744.09447"
   height="1052.3622"
   xml:space="preserve"
   sodipodi:docname="homology_machine.pdf"><metadata
     id="metadata8"><rdf:RDF><cc:Work
         rdf:about=""><dc:format>image/svg+xml</dc:format><dc:type
           rdf:resource="http://purl.org/dc/dcmitype/StillImage" /><dc:title></dc:title></cc:Work></rdf:RDF></metadata><defs
     id="defs6" /><sodipodi:namedview
     pagecolor="#ffffff"
     bordercolor="#666666"
     borderopacity="1"
     objecttolerance="10"
     gridtolerance="10"
     guidetolerance="10"
     inkscape:pageopacity="0"
     inkscape:pageshadow="2"
     inkscape:window-width="1280"
     inkscape:window-height="742"
     id="namedview4"
     showgrid="false"
     inkscape:zoom="1.4608206"
     inkscape:cx="372.04724"
     inkscape:cy="889.84476"
     inkscape:window-x="0"
     inkscape:window-y="26"
     inkscape:window-maximized="1"
     inkscape:current-layer="g12" /><g
     id="g10"
     inkscape:groupmode="layer"
     inkscape:label="homology_machine"
     transform="matrix(1.25,0,0,-1.25,0,1052.3622)"><g
       id="g12"><g
         id="g16"
         transform="matrix(1,0,0,-0.995692,0,841.88977)" /><g
         id="g28"
         transform="matrix(1,0.764558,0.706544,-0.916177,0,841.88977)"><path
           d="m -56.901,250.459 c -10e-4,6.408 -5.819,11.602 -12.994,11.6 -7.176,0.002 -12.991,-5.192 -12.991,-11.6 -0.002,-6.405 5.816,-11.599 12.991,-11.598 7.177,-10e-4 12.992,5.192 12.994,11.598 z"
           style="fill:#808000;fill-opacity:1;fill-rule:nonzero;stroke:#000000;stroke-opacity:1;stroke-width:3.062387;stroke-linecap:butt;stroke-linejoin:round;stroke-miterlimit:4;stroke-dasharray:none"
           id="path30" /></g><path
         d="m 21.559,348.101 238.429,14.093 24.914,32.852 L 98.52,374.847 21.559,348.101 z"
         style="fill:#8fa6d7;fill-opacity:1;fill-rule:evenodd;stroke:none"
         id="path48" /><path
         d="m 21.559,460.503 0,-112.402 76.961,26.746 0,84.426 -76.961,1.23 z"
         style="fill:#8fa6d7;fill-opacity:1;fill-rule:evenodd;stroke:none"
         id="path50" /><path
         d="m 98.52,459.273 186.382,55.132 0,-119.359 -186.382,-20.199 0,84.426 z"
         style="fill:#8fa6d7;fill-opacity:1;fill-rule:evenodd;stroke:none"
         id="path52" /><path
         d="m 21.559,460.503 238.429,85.852 24.914,-31.95 -186.382,-55.132 -76.961,1.23 z"
         style="fill:#8fa6d7;fill-opacity:1;fill-rule:evenodd;stroke:none"
         id="path54" /><g
         id="g56"
         transform="matrix(0.996513,0,0,-1,0,841.88977)"><path
           d="m 260.898,295.535 0,184.16 25.001,-32.851 0,-119.36 -25.001,-31.949 z"
           style="fill:#8fa6d7;fill-opacity:1;fill-rule:evenodd;stroke:#000000;stroke-opacity:1;stroke-width:5.364914;stroke-linecap:butt;stroke-linejoin:round;stroke-miterlimit:4;stroke-dasharray:none"
           id="path58" /></g><g
         id="g60"
         transform="matrix(0.996513,0,0,-1,0,841.88977)"><path
           d="m 21.634,381.387 239.264,-85.852 0,184.16 -239.264,14.094 0,-112.402 z"
           style="fill:#8fa6d7;fill-opacity:1;fill-rule:evenodd;stroke:#000000;stroke-opacity:1;stroke-width:5.364914;stroke-linecap:butt;stroke-linejoin:round;stroke-miterlimit:4;stroke-dasharray:none"
           id="path62" /></g><g
         id="g64"
         transform="matrix(0.996513,0,0,-1,0,841.88977)"><path
           d="M 98.602,344.648 C 88.547,327.363 73.408,313.266 41.339,291.316 32.386,285.188 22.732,278.477 19.89,276.402 L 9.357,270.715 120.643,239.812 c 58.254,-18.05 126.155,-45.835 127.002,-46.054 0.843,-0.223 -23.171,16.754 -29.478,22.035 -27.53,23.043 -39.685,40.406 -45.538,65.055 -1.893,7.964 -3.045,23.601 -2.536,34.441 l 2.505,11.481 -35.926,13.191 c -18.702,6.695 -34.797,12.727 -35.268,12.902 -0.474,0.172 -1.622,-6.191 -2.802,-8.215 z"
           style="fill:#8fa6d7;fill-opacity:1;fill-rule:nonzero;stroke:#000000;stroke-opacity:1;stroke-width:5.364914;stroke-linecap:butt;stroke-linejoin:round;stroke-miterlimit:4;stroke-dasharray:none"
           id="path66" /></g><g
         id="g68"
         transform="matrix(0.996513,0,0,-1,0,841.88977)"><path
           d="m 273.52,349.418 c 19.345,-5.059 36.981,-15.867 66.717,-40.887 8.306,-6.988 17.358,-14.492 20.117,-16.676 l 8.299,-8.625 -0.032,115.497 c 1.792,60.964 5.014,107 5.002,107.875 -0.016,0.871 -4.574,0.011 -7.973,-7.477 -14.829,-32.695 -28.302,-49.059 -50.485,-61.297 -7.169,-3.957 -21.924,-9.254 -32.504,-11.668 l -7.851,-1.793 -2.63,-36.019 c -1.447,-19.813 -2.662,-36.434 -2.705,-36.938 -0.043,-0.5 1.779,-1.398 4.045,-1.992 z"
           style="fill:#8fa6d7;fill-opacity:1;fill-rule:nonzero;stroke:#000000;stroke-opacity:1;stroke-width:5.364914;stroke-linecap:butt;stroke-linejoin:round;stroke-miterlimit:4;stroke-dasharray:none"
           id="path70" /></g><g
         id="g72"
         transform="matrix(1,0,0,-0.908094,0,841.88977)"><path
           d="m 162.43,521.155 -13.43,-8.827 -2.578,15.864 -4.613,-15.395 -12.172,10.496 6.363,-14.759 -16.074,0.215 14.363,-7.218 -12.449,-10.164 15.64,3.703 -3.007,-15.791 9.601,12.892 7.852,-14.028 -0.934,16.05 15.031,-5.704 -11.027,11.696 15.176,5.291 -15.965,1.871 8.223,13.808 z"
           style="fill:#000000;fill-opacity:1;fill-rule:nonzero;stroke:#000000;stroke-opacity:1;stroke-width:4.560281;stroke-linecap:butt;stroke-linejoin:round;stroke-miterlimit:4;stroke-dasharray:none"
           id="path74" /></g><g
         id="g76"
         transform="matrix(0.996513,0,0,-1,0,841.88977)"><path
           d="m 52.527,378.004 0,81.144"
           style="fill:none;stroke:#000000;stroke-opacity:1;stroke-width:15.252215;stroke-linecap:butt;stroke-linejoin:miter;stroke-miterlimit:4;stroke-dasharray:none"
           id="path78" /></g><g
         id="g80"
         transform="matrix(0.996513,0,0,-1,0,841.88977)"><path
           d="m 52.527,416.859 52.754,0"
           style="fill:none;stroke:#000000;stroke-opacity:1;stroke-width:15.252215;stroke-linecap:butt;stroke-linejoin:miter;stroke-miterlimit:4;stroke-dasharray:none"
           id="path82" /></g><g
         id="g84"
         transform="matrix(0.996513,0,0,-1,0,841.88977)"><path
           d="m 105.74,376.633 -1.145,82.285"
           style="fill:none;stroke:#000000;stroke-opacity:1;stroke-width:15.252215;stroke-linecap:butt;stroke-linejoin:miter;stroke-miterlimit:4;stroke-dasharray:none"
           id="path86" /></g><g
         id="g88"
         transform="matrix(1,0,0,-0.995692,0,841.88977)"><path
           d="m 335.25,101.629 -17.629,0.377 c 0.844,6.685 0.973,13.46 0.387,20.173 -0.567,6.449 -1.789,12.832 -3.289,19.133 -1.172,4.927 -2.543,9.882 -5.11,14.245 -2.371,4.029 -5.687,7.422 -9.23,10.475 -3.918,3.37 -8.149,6.371 -12.625,8.956 l -9.609,-14.916 -8.567,38.73 38.348,8.242 -9.012,-16.1 c 4.77,-2.825 9.328,-6.003 13.625,-9.506 4.938,-4.025 9.574,-8.517 13.047,-13.857 2.508,-3.852 4.375,-8.085 6.047,-12.366 1.887,-4.829 3.539,-9.764 4.586,-14.841 1.148,-5.567 1.558,-11.271 1.504,-16.956 -0.067,-7.32 -0.899,-14.637 -2.473,-21.789"
           style="fill:#b6d770;fill-opacity:1;fill-rule:nonzero;stroke:#000000;stroke-opacity:1;stroke-width:3.784641;stroke-linecap:butt;stroke-linejoin:miter;stroke-miterlimit:4;stroke-dasharray:none"
           id="path90" /></g><g
         id="g92"
         transform="matrix(1,0,0,-0.995692,0,841.88977)"><path
           d="m 395.812,370.906 -0.624,19.259 61.874,-0.212 0,14.335 43.75,-22.467 -43.124,-22.468 -0.626,15.834 -61.25,-4.281"
           style="fill:#b6d770;fill-opacity:1;fill-rule:nonzero;stroke:#000000;stroke-opacity:1;stroke-width:3.784641;stroke-linecap:butt;stroke-linejoin:miter;stroke-miterlimit:4;stroke-dasharray:none"
           id="path94" /></g></g></g></svg>