<?xml version="1.0" encoding="UTF-8" standalone="no"?>
<!-- Created with Inkscape (http://www.inkscape.org/) -->

<svg
   xmlns:dc="http://purl.org/dc/elements/1.1/"
   xmlns:cc="http://creativecommons.org/ns#"
   xmlns:rdf="http://www.w3.org/1999/02/22-rdf-syntax-ns#"
   xmlns:svg="http://www.w3.org/2000/svg"
   xmlns="http://www.w3.org/2000/svg"
   xmlns:sodipodi="http://sodipodi.sourceforge.net/DTD/sodipodi-0.dtd"
   xmlns:inkscape="http://www.inkscape.org/namespaces/inkscape"
   id="svg2"
   version="1.1"
   inkscape:version="0.48.1 r9760"
   width="740.55832"
   height="307.31884"
   xml:space="preserve"
   sodipodi:docname="blowup-cover_0.pdf"><metadata
     id="metadata8"><rdf:RDF><cc:Work
         rdf:about=""><dc:format>image/svg+xml</dc:format><dc:type
           rdf:resource="http://purl.org/dc/dcmitype/StillImage" /><dc:title></dc:title></cc:Work></rdf:RDF></metadata><defs
     id="defs6" /><sodipodi:namedview
     pagecolor="#ffffff"
     bordercolor="#666666"
     borderopacity="1"
     objecttolerance="10"
     gridtolerance="10"
     guidetolerance="10"
     inkscape:pageopacity="0"
     inkscape:pageshadow="2"
     inkscape:window-width="640"
     inkscape:window-height="480"
     id="namedview4"
     showgrid="false"
     inkscape:zoom="0.67381591"
     inkscape:cx="370.27917"
     inkscape:cy="153.65942"
     inkscape:window-x="0"
     inkscape:window-y="26"
     inkscape:window-maximized="0"
     inkscape:current-layer="g12" /><g
     id="g10"
     inkscape:groupmode="layer"
     inkscape:label="blowup-cover_1"
     transform="matrix(1.25,0,0,-1.25,0,307.31884)"><g
       id="g12"><g
         id="g14"
         transform="matrix(0.9878,0,0,-1,0,245.85507)"><path
           d="m 166.31,67.379 70.75,0.258"
           style="fill:#000000;fill-opacity:1;fill-rule:nonzero;stroke:#1a1a1a;stroke-opacity:1;stroke-width:4.588073;stroke-linecap:butt;stroke-linejoin:miter;stroke-miterlimit:4;stroke-dasharray:none"
           id="path16" /></g><g
         id="g18"
         transform="matrix(0.9878,0,0,-1,0,245.85507)"><path
           d="m 94.129,66.914 70.75,0.258"
           style="fill:#4d4d4d;fill-opacity:1;fill-rule:nonzero;stroke:#1a1a1a;stroke-opacity:1;stroke-width:4.588073;stroke-linecap:butt;stroke-linejoin:miter;stroke-miterlimit:4;stroke-dasharray:none"
           id="path20" /></g><g
         id="g22"
         transform="matrix(0.9878,0,0,-1,0,245.85507)"><path
           d="M 20.35,65.566 91.1,65.82"
           style="fill:#4d4d4d;fill-opacity:1;fill-rule:nonzero;stroke:#1a1a1a;stroke-opacity:1;stroke-width:4.588073;stroke-linecap:butt;stroke-linejoin:miter;stroke-miterlimit:4;stroke-dasharray:none"
           id="path24" /></g><g
         id="g26"
         transform="matrix(-0.0961716,-0.974694,-1,0.0740552,0,245.85507)"><path
           d="m 74.226,-103.279 c 0.001,6.445 -5.666,11.67 -12.655,11.666 -6.99,0.001 -12.656,-5.22 -12.657,-11.665 0.003,-6.442 5.666,-11.666 12.655,-11.667 6.99,0 12.657,5.225 12.657,11.666 z"
           style="fill:#b6d770;fill-opacity:1;fill-rule:nonzero;stroke:#1a1a1a;stroke-opacity:1;stroke-width:5.221847;stroke-linecap:butt;stroke-linejoin:miter;stroke-miterlimit:4;stroke-dasharray:none"
           id="path28" /></g><g
         id="g30"
         transform="matrix(0.112951,0.974694,1,-0.0869755,0,245.85507)"><path
           d="m -53.838,33.019 c 10e-4,6.437 -5.657,11.65 -12.639,11.65 -6.977,0.003 -12.636,-5.214 -12.637,-11.647 -0.002,-6.437 5.657,-11.651 12.638,-11.65 6.977,-0.003 12.637,5.213 12.638,11.647 z"
           style="fill:#b6d770;fill-opacity:1;fill-rule:nonzero;stroke:#1a1a1a;stroke-opacity:1;stroke-width:5.214677;stroke-linecap:butt;stroke-linejoin:miter;stroke-miterlimit:4;stroke-dasharray:none"
           id="path32" /></g><g
         id="g34"
         transform="matrix(-0.0961716,-0.974694,-1,0.0740552,0,245.85507)"><path
           d="m 63.973,-238.234 c 0,6.441 -5.667,11.666 -12.656,11.666 -6.989,0 -12.656,-5.224 -12.657,-11.666 0.003,-6.445 5.666,-11.666 12.656,-11.666 6.989,0 12.656,5.22 12.657,11.666 z"
           style="fill:#b6d770;fill-opacity:1;fill-rule:nonzero;stroke:#1a1a1a;stroke-opacity:1;stroke-width:5.221847;stroke-linecap:butt;stroke-linejoin:miter;stroke-miterlimit:4;stroke-dasharray:none"
           id="path36" /></g><g
         id="g38"
         transform="matrix(0.112951,0.974694,1,-0.0869755,0,245.85507)"><path
           d="m -41.146,175.257 c 10e-4,6.437 -5.657,11.651 -12.638,11.654 -6.978,-0.001 -12.637,-5.217 -12.638,-11.651 -0.001,-6.433 5.657,-11.65 12.639,-11.65 6.977,-0.003 12.636,5.213 12.637,11.647 z"
           style="fill:#b6d770;fill-opacity:1;fill-rule:nonzero;stroke:#1a1a1a;stroke-opacity:1;stroke-width:5.214677;stroke-linecap:butt;stroke-linejoin:miter;stroke-miterlimit:4;stroke-dasharray:none"
           id="path40" /></g><g
         id="g42"
         transform="matrix(1,0,0,-0.727676,0,245.85507)"><path
           d="m 191.234,88.848 c 0,31.553 -42.074,57.138 -93.972,57.138 -51.895,0 -93.969,-25.585 -93.969,-57.138 0,-31.559 42.074,-57.144 93.969,-57.144 51.898,0 93.972,25.585 93.972,57.144 z"
           style="fill:none;stroke:#8fa6d7;stroke-opacity:0.97807;stroke-width:6.596838;stroke-linecap:butt;stroke-linejoin:round;stroke-miterlimit:4;stroke-dasharray:none"
           id="path44" /></g><g
         id="g46"
         transform="matrix(1,0,0,-0.727676,0,245.85507)"><path
           d="m 259.707,88.778 c 0,31.559 -42.07,57.143 -93.969,57.143 -51.898,0 -93.972,-25.584 -93.972,-57.143 0,-31.554 42.074,-57.138 93.972,-57.138 51.899,0 93.969,25.584 93.969,57.138 z"
           style="fill:none;stroke:#dab1ef;stroke-opacity:1;stroke-width:6.596838;stroke-linecap:butt;stroke-linejoin:round;stroke-miterlimit:4;stroke-dasharray:none"
           id="path48" /></g><g
         id="g50"
         transform="matrix(1,0,0,-0.964867,0,245.85507)"><path
           d="m 491.328,27.497 -0.062,88.877"
           style="fill:#000000;fill-opacity:1;fill-rule:nonzero;stroke:#1a1a1a;stroke-opacity:1;stroke-width:4.072174;stroke-linecap:butt;stroke-linejoin:miter;stroke-miterlimit:4;stroke-dasharray:none"
           id="path52" /></g><g
         id="g54"
         transform="matrix(1,0,0,-0.964867,0,245.85507)"><path
           d="m 427.914,32.287 -0.059,88.876"
           style="fill:#000000;fill-opacity:1;fill-rule:nonzero;stroke:#1a1a1a;stroke-opacity:1;stroke-width:4.642279;stroke-linecap:butt;stroke-linejoin:miter;stroke-miterlimit:4;stroke-dasharray:none"
           id="path56" /></g><g
         id="g58"
         transform="matrix(1,0,0,-0.964867,0,245.85507)"><path
           d="m 495.375,31.594 66.148,0.239"
           style="fill:#666666;fill-opacity:1;fill-rule:nonzero;stroke:#1a1a1a;stroke-opacity:1;stroke-width:4.642279;stroke-linecap:butt;stroke-linejoin:miter;stroke-miterlimit:4;stroke-dasharray:none"
           id="path60" /></g><g
         id="g62"
         transform="matrix(1,0,0,-0.964867,0,245.85507)"><path
           d="M 427.895,31.161 494.039,31.4"
           style="fill:#000000;fill-opacity:1;fill-rule:nonzero;stroke:#1a1a1a;stroke-opacity:1;stroke-width:4.642279;stroke-linecap:butt;stroke-linejoin:miter;stroke-miterlimit:4;stroke-dasharray:none"
           id="path64" /></g><g
         id="g66"
         transform="matrix(1,0,0,-0.964867,0,245.85507)"><path
           d="m 425.203,114.192 66.145,0.522"
           style="fill:#1a1a1a;fill-opacity:1;fill-rule:nonzero;stroke:#1a1a1a;stroke-opacity:1;stroke-width:4.713949;stroke-linecap:butt;stroke-linejoin:miter;stroke-miterlimit:4;stroke-dasharray:none"
           id="path68" /></g><g
         id="g70"
         transform="matrix(1,0,0,-0.964867,0,245.85507)"><path
           d="m 356.227,114.192 66.144,0.522"
           style="fill:#1a1a1a;fill-opacity:1;fill-rule:nonzero;stroke:#1a1a1a;stroke-opacity:1;stroke-width:4.713949;stroke-linecap:butt;stroke-linejoin:miter;stroke-miterlimit:4;stroke-dasharray:none"
           id="path72" /></g><g
         id="g74"
         transform="matrix(1,0,0,-0.964867,0,245.85507)"><path
           d="m 455.195,113.192 -17.25,-0.223 -1.484,-1.959 c -0.816,-1.077 -2.606,-2.624 -3.977,-3.438 l -2.488,-1.473 0,-63.428 1.195,-0.287 c 3.438,-0.826 7.317,-3.802 8.864,-6.806 l 0.843,-1.631 42.516,0 0.801,1.773 c 0.441,0.975 1.742,2.623 2.894,3.66 l 2.098,1.882 0,65.31 -2.398,1.357 c -1.52,0.854 -2.977,2.149 -3.961,3.522 l -1.559,2.17 -4.422,-0.101 c -2.433,-0.057 -12.183,-0.203 -21.672,-0.328 z"
           style="fill:#b6d770;fill-opacity:1;fill-rule:nonzero;stroke:#1a1a1a;stroke-opacity:1;stroke-width:2.850151;stroke-linecap:butt;stroke-linejoin:round;stroke-miterlimit:4;stroke-dasharray:none"
           id="path76" /></g><g
         id="g78"
         transform="matrix(-0.0961716,-0.928976,-1,0.0705816,0,245.85507)"><path
           d="m 12.61,-428.369 c -0.004,6.098 -5.364,11.039 -11.978,11.039 -6.614,-0.001 -11.977,-4.942 -11.978,-11.04 0,-6.097 5.364,-11.043 11.978,-11.042 6.614,0 11.977,4.942 11.978,11.043 z"
           style="fill:#dab1ef;fill-opacity:1;fill-rule:nonzero;stroke:#1a1a1a;stroke-opacity:1;stroke-width:4.942221;stroke-linecap:butt;stroke-linejoin:miter;stroke-miterlimit:4;stroke-dasharray:none"
           id="path80" /></g><g
         id="g82"
         transform="matrix(-0.0961716,-0.928976,-1,0.0705816,0,245.85507)"><path
           d="m 2.353,-563.363 c -0.003,6.098 -5.363,11.043 -11.977,11.042 -6.615,0 -11.977,-4.945 -11.978,-11.043 -0.001,-6.097 5.363,-11.039 11.978,-11.039 6.614,-0.003 11.977,4.942 11.977,11.04 z"
           style="fill:#dab1ef;fill-opacity:1;fill-rule:nonzero;stroke:#1a1a1a;stroke-opacity:1;stroke-width:4.942221;stroke-linecap:butt;stroke-linejoin:miter;stroke-miterlimit:4;stroke-dasharray:none"
           id="path84" /></g><g
         id="g86"
         transform="matrix(0.112951,0.928976,1,-0.082896,0,245.85507)"><path
           d="m 26.08,491.496 c 0.001,6.089 -5.353,11.026 -11.959,11.026 -6.606,0 -11.962,-4.934 -11.963,-11.024 0.003,-6.09 5.357,-11.027 11.963,-11.027 6.606,0 11.958,4.935 11.959,11.025 z"
           style="fill:#dab1ef;fill-opacity:1;fill-rule:nonzero;stroke:#1a1a1a;stroke-opacity:1;stroke-width:4.935435;stroke-linecap:butt;stroke-linejoin:miter;stroke-miterlimit:4;stroke-dasharray:none"
           id="path88" /></g><path
         d="m 424.465,122.195 c -6.098,0.43 -10.524,5.762 -9.887,11.906 0.633,6.145 6.094,10.778 12.192,10.348 6.097,-0.43 10.527,-5.762 9.89,-11.906 -0.637,-6.145 -6.098,-10.778 -12.195,-10.348 z"
         style="fill:#8fa6d7;fill-opacity:1;fill-rule:nonzero;stroke:none"
         id="path90" /><g
         id="g92"
         transform="matrix(-0.0961716,-0.928976,-1,0.0705816,0,245.85507)"><path
           d="m 100.133,-434.095 c 0.001,6.098 -5.364,11.039 -11.978,11.039 -6.614,0.003 -11.977,-4.942 -11.977,-11.04 -10e-4,-6.097 5.363,-11.043 11.977,-11.042 6.614,0 11.977,4.946 11.978,11.043 z"
           style="fill:none;stroke:#1a1a1a;stroke-opacity:0.994118;stroke-width:4.942167;stroke-linecap:butt;stroke-linejoin:miter;stroke-miterlimit:4;stroke-dasharray:none"
           id="path94" /></g><path
         d="m 358.973,144.429 c 6.089,-0.504 10.422,-5.89 9.675,-12.027 -0.746,-6.137 -6.289,-10.699 -12.378,-10.195 -6.09,0.504 -10.422,5.886 -9.676,12.023 0.746,6.137 6.289,10.703 12.379,10.199 z"
         style="fill:#8fa6d7;fill-opacity:1;fill-rule:nonzero;stroke:none"
         id="path96" /><g
         id="g98"
         transform="matrix(0.112951,0.928976,1,-0.082896,0,245.85507)"><path
           d="m -76.378,367.6 c 0.001,6.089 -5.357,11.027 -11.963,11.027 -6.606,0 -11.958,-4.939 -11.959,-11.029 -0.001,-6.089 5.353,-11.026 11.959,-11.026 6.606,0 11.962,4.938 11.963,11.028 z"
           style="fill:none;stroke:#1a1a1a;stroke-opacity:0.994118;stroke-width:4.935381;stroke-linecap:butt;stroke-linejoin:miter;stroke-miterlimit:4;stroke-dasharray:none"
           id="path100" /></g><path
         d="m 494.949,144.429 c 6.09,-0.504 10.422,-5.89 9.676,-12.027 -0.746,-6.137 -6.285,-10.699 -12.375,-10.195 -6.09,0.504 -10.422,5.886 -9.676,12.023 0.746,6.137 6.285,10.703 12.375,10.199 z"
         style="fill:#8fa6d7;fill-opacity:1;fill-rule:nonzero;stroke:none"
         id="path102" /><g
         id="g104"
         transform="matrix(0.112951,0.928976,1,-0.082896,0,245.85507)"><path
           d="m -64.365,502.219 c 10e-4,6.09 -5.357,11.027 -11.963,11.027 -6.606,0 -11.958,-4.934 -11.959,-11.024 -10e-4,-6.09 5.353,-11.026 11.959,-11.026 6.606,-0.001 11.962,4.934 11.963,11.023 z"
           style="fill:none;stroke:#1a1a1a;stroke-opacity:0.994118;stroke-width:4.935381;stroke-linecap:butt;stroke-linejoin:miter;stroke-miterlimit:4;stroke-dasharray:none"
           id="path106" /></g><g
         id="g108"
         transform="matrix(0.9878,0,0,-1,0,245.85507)"><path
           d="m 434.809,92.605 19.234,16.575"
           style="fill:none;stroke:#1a1a1a;stroke-opacity:1;stroke-width:0.804925;stroke-linecap:butt;stroke-linejoin:miter;stroke-miterlimit:4;stroke-dasharray:none"
           id="path110" /></g><g
         id="g112"
         transform="matrix(0.9878,0,0,-1,0,245.85507)"><path
           d="m 434.52,86.32 28.346,22.86"
           style="fill:none;stroke:#1a1a1a;stroke-opacity:1;stroke-width:0.804925;stroke-linecap:butt;stroke-linejoin:miter;stroke-miterlimit:4;stroke-dasharray:none"
           id="path114" /></g><g
         id="g116"
         transform="matrix(0.9878,0,0,-1,0,245.85507)"><path
           d="m 435.457,72.922 44.298,37.808"
           style="fill:none;stroke:#1a1a1a;stroke-opacity:1;stroke-width:0.804925;stroke-linecap:butt;stroke-linejoin:miter;stroke-miterlimit:4;stroke-dasharray:none"
           id="path118" /></g><g
         id="g120"
         transform="matrix(0.9878,0,0,-1,0,245.85507)"><path
           d="m 435.046,79.086 38.267,32.047"
           style="fill:none;stroke:#1a1a1a;stroke-opacity:1;stroke-width:0.804925;stroke-linecap:butt;stroke-linejoin:miter;stroke-miterlimit:4;stroke-dasharray:none"
           id="path122" /></g><g
         id="g124"
         transform="matrix(0.9878,0,0,-1,0,245.85507)"><path
           d="m 433.939,64.824 53.793,44.492"
           style="fill:none;stroke:#1a1a1a;stroke-opacity:1;stroke-width:0.804925;stroke-linecap:butt;stroke-linejoin:miter;stroke-miterlimit:4;stroke-dasharray:none"
           id="path126" /></g><g
         id="g128"
         transform="matrix(0.9878,0,0,-1,0,245.85507)"><path
           d="m 432.551,55.438 58.906,49.441"
           style="fill:none;stroke:#1a1a1a;stroke-opacity:1;stroke-width:0.804925;stroke-linecap:butt;stroke-linejoin:miter;stroke-miterlimit:4;stroke-dasharray:none"
           id="path130" /></g><g
         id="g132"
         transform="matrix(0.9878,0,0,-1,0,245.85507)"><path
           d="m 436.537,51.043 58.906,49.441"
           style="fill:none;stroke:#1a1a1a;stroke-opacity:1;stroke-width:0.804925;stroke-linecap:butt;stroke-linejoin:miter;stroke-miterlimit:4;stroke-dasharray:none"
           id="path134" /></g><g
         id="g136"
         transform="matrix(0.9878,0,0,-1,0,245.85507)"><path
           d="m 436.537,42.457 58.906,49.441"
           style="fill:none;stroke:#1a1a1a;stroke-opacity:1;stroke-width:0.804925;stroke-linecap:butt;stroke-linejoin:miter;stroke-miterlimit:4;stroke-dasharray:none"
           id="path138" /></g><g
         id="g140"
         transform="matrix(0.9878,0,0,-1,0,245.85507)"><path
           d="m 440.017,37.406 58.906,49.442"
           style="fill:none;stroke:#1a1a1a;stroke-opacity:1;stroke-width:0.804925;stroke-linecap:butt;stroke-linejoin:miter;stroke-miterlimit:4;stroke-dasharray:none"
           id="path142" /></g><g
         id="g144"
         transform="matrix(0.9878,0,0,-1,0,245.85507)"><path
           d="m 445.13,32.66 52.258,44.086"
           style="fill:#000000;fill-opacity:1;fill-rule:nonzero;stroke:#1a1a1a;stroke-opacity:1;stroke-width:0.804925;stroke-linecap:butt;stroke-linejoin:miter;stroke-miterlimit:4;stroke-dasharray:none"
           id="path146" /></g><g
         id="g148"
         transform="matrix(0.9878,0,0,-1,0,245.85507)"><path
           d="m 452.125,30.395 44.299,37.808"
           style="fill:none;stroke:#1a1a1a;stroke-opacity:1;stroke-width:0.804925;stroke-linecap:butt;stroke-linejoin:miter;stroke-miterlimit:4;stroke-dasharray:none"
           id="path150" /></g><g
         id="g152"
         transform="matrix(0.9878,0,0,-1,0,245.85507)"><path
           d="M 460.461,30.043 498.725,62.09"
           style="fill:none;stroke:#1a1a1a;stroke-opacity:1;stroke-width:0.804925;stroke-linecap:butt;stroke-linejoin:miter;stroke-miterlimit:4;stroke-dasharray:none"
           id="path154" /></g><g
         id="g156"
         transform="matrix(0.9878,0,0,-1,0,245.85507)"><path
           d="m 468.793,28.777 28.346,22.86"
           style="fill:none;stroke:#1a1a1a;stroke-opacity:1;stroke-width:0.804925;stroke-linecap:butt;stroke-linejoin:miter;stroke-miterlimit:4;stroke-dasharray:none"
           id="path158" /></g><g
         id="g160"
         transform="matrix(0.9878,0,0,-1,0,245.85507)"><path
           d="m 478.668,31.113 19.234,16.571"
           style="fill:none;stroke:#1a1a1a;stroke-opacity:1;stroke-width:0.804925;stroke-linecap:butt;stroke-linejoin:miter;stroke-miterlimit:4;stroke-dasharray:none"
           id="path162" /></g><g
         id="g164"
         transform="matrix(1,0,0,-0.498428,0,245.85507)"><path
           d="m 518.73,223.319 c 0,31.059 -41.41,56.239 -92.492,56.239 -51.082,0 -92.496,-25.18 -92.496,-56.239 0,-31.066 41.414,-56.247 92.496,-56.247 51.082,0 92.492,25.181 92.492,56.247 z"
           style="fill:none;stroke:#8fa6d7;stroke-opacity:1;stroke-width:7.971733;stroke-linecap:butt;stroke-linejoin:round;stroke-miterlimit:4;stroke-dasharray:none"
           id="path166" /></g><g
         id="g168"
         transform="matrix(1,0,0,-0.498428,0,245.85507)"><path
           d="m 588.469,60.228 c 0,31.059 -41.41,56.247 -92.496,56.247 -51.082,0 -92.493,-25.188 -92.493,-56.247 0,-31.058 41.411,-56.239 92.493,-56.239 51.086,0 92.496,25.181 92.496,56.239 z"
           style="fill:none;stroke:#dab1ef;stroke-opacity:1;stroke-width:7.9706;stroke-linecap:butt;stroke-linejoin:round;stroke-miterlimit:4;stroke-dasharray:none"
           id="path170" /></g><g
         id="g172"
         transform="matrix(0.9878,0,0,-1,0,245.85507)"><path
           d="m 284.953,55.273 -0.032,13.145 40.131,-1.262 0.28,9.782 27.939,-16.114 -28.409,-14.551 -0.095,10.813 -39.814,-1.813"
           style="fill:#b6d770;fill-opacity:1;fill-rule:nonzero;stroke:#000000;stroke-opacity:1;stroke-width:2.518344;stroke-linecap:butt;stroke-linejoin:miter;stroke-miterlimit:4;stroke-dasharray:none"
           id="path174" /></g></g></g></svg>