<?xml version="1.0" encoding="UTF-8" standalone="no"?>
<!-- Created with Inkscape (http://www.inkscape.org/) -->

<svg
   xmlns:dc="http://purl.org/dc/elements/1.1/"
   xmlns:cc="http://creativecommons.org/ns#"
   xmlns:rdf="http://www.w3.org/1999/02/22-rdf-syntax-ns#"
   xmlns:svg="http://www.w3.org/2000/svg"
   xmlns="http://www.w3.org/2000/svg"
   xmlns:sodipodi="http://sodipodi.sourceforge.net/DTD/sodipodi-0.dtd"
   xmlns:inkscape="http://www.inkscape.org/namespaces/inkscape"
   id="svg3207"
   version="1.1"
   inkscape:version="0.48.1 r9760"
   width="739.79332"
   height="176.66485"
   xml:space="preserve"
   sodipodi:docname="blowup-persistence.pdf"><metadata
     id="metadata3213"><rdf:RDF><cc:Work
         rdf:about=""><dc:format>image/svg+xml</dc:format><dc:type
           rdf:resource="http://purl.org/dc/dcmitype/StillImage" /><dc:title></dc:title></cc:Work></rdf:RDF></metadata><defs
     id="defs3211" /><sodipodi:namedview
     pagecolor="#ffffff"
     bordercolor="#666666"
     borderopacity="1"
     objecttolerance="10"
     gridtolerance="10"
     guidetolerance="10"
     inkscape:pageopacity="0"
     inkscape:pageshadow="2"
     inkscape:window-width="640"
     inkscape:window-height="480"
     id="namedview3209"
     showgrid="false"
     inkscape:zoom="0.67991962"
     inkscape:cx="369.89667"
     inkscape:cy="88.332428"
     inkscape:window-x="0"
     inkscape:window-y="26"
     inkscape:window-maximized="0"
     inkscape:current-layer="g3215" /><g
     id="g3215"
     inkscape:groupmode="layer"
     inkscape:label="blowup-persistence"
     transform="matrix(1.25,0,0,-1.25,0,176.66485)"><g
       id="g3217"><g
         id="g3219"
         transform="matrix(1,0,0,-0.964867,0,141.33188)"><path
           d="m 490.715,27.497 -0.059,88.877"
           style="fill:#000000;fill-opacity:1;fill-rule:nonzero;stroke:#1a1a1a;stroke-opacity:1;stroke-width:4.072174;stroke-linecap:butt;stroke-linejoin:miter;stroke-miterlimit:4;stroke-dasharray:none"
           id="path3221" /></g><g
         id="g3223"
         transform="matrix(1,0,0,-0.964867,0,141.33188)"><path
           d="m 427.301,32.287 -0.059,88.876"
           style="fill:#000000;fill-opacity:1;fill-rule:nonzero;stroke:#1a1a1a;stroke-opacity:1;stroke-width:4.642279;stroke-linecap:butt;stroke-linejoin:miter;stroke-miterlimit:4;stroke-dasharray:none"
           id="path3225" /></g><g
         id="g3227"
         transform="matrix(1,0,0,-0.964867,0,141.33188)"><path
           d="m 494.766,31.594 66.144,0.239"
           style="fill:#666666;fill-opacity:1;fill-rule:nonzero;stroke:#1a1a1a;stroke-opacity:1;stroke-width:4.642279;stroke-linecap:butt;stroke-linejoin:miter;stroke-miterlimit:4;stroke-dasharray:none"
           id="path3229" /></g><g
         id="g3231"
         transform="matrix(1,0,0,-0.964867,0,141.33188)"><path
           d="M 427.281,31.161 493.426,31.4"
           style="fill:#000000;fill-opacity:1;fill-rule:nonzero;stroke:#1a1a1a;stroke-opacity:1;stroke-width:4.642279;stroke-linecap:butt;stroke-linejoin:miter;stroke-miterlimit:4;stroke-dasharray:none"
           id="path3233" /></g><g
         id="g3235"
         transform="matrix(1,0,0,-0.964867,0,141.33188)"><path
           d="m 424.59,114.192 66.144,0.522"
           style="fill:#1a1a1a;fill-opacity:1;fill-rule:nonzero;stroke:#1a1a1a;stroke-opacity:1;stroke-width:4.713949;stroke-linecap:butt;stroke-linejoin:miter;stroke-miterlimit:4;stroke-dasharray:none"
           id="path3237" /></g><g
         id="g3239"
         transform="matrix(1,0,0,-0.964867,0,141.33188)"><path
           d="m 355.613,114.192 66.145,0.522"
           style="fill:#1a1a1a;fill-opacity:1;fill-rule:nonzero;stroke:#1a1a1a;stroke-opacity:1;stroke-width:4.713949;stroke-linecap:butt;stroke-linejoin:miter;stroke-miterlimit:4;stroke-dasharray:none"
           id="path3241" /></g><g
         id="g3243"
         transform="matrix(1,0,0,-0.964867,0,141.33188)"><path
           d="m 454.582,113.192 -17.246,-0.223 -1.488,-1.959 c -0.817,-1.077 -2.606,-2.624 -3.977,-3.438 l -2.488,-1.473 0,-63.428 1.199,-0.287 c 3.434,-0.826 7.313,-3.802 8.859,-6.806 l 0.844,-1.631 42.52,0 0.797,1.773 c 0.441,0.975 1.746,2.623 2.898,3.66 l 2.094,1.882 0,65.31 -2.399,1.357 c -1.515,0.854 -2.972,2.149 -3.961,3.522 l -1.558,2.17 -4.422,-0.101 c -2.43,-0.057 -12.184,-0.203 -21.672,-0.328 z"
           style="fill:#b6d770;fill-opacity:1;fill-rule:nonzero;stroke:#1a1a1a;stroke-opacity:1;stroke-width:2.850151;stroke-linecap:butt;stroke-linejoin:round;stroke-miterlimit:4;stroke-dasharray:none"
           id="path3245" /></g><g
         id="g3247"
         transform="matrix(-0.0961716,-0.928976,-1,0.0705816,0,141.33188)"><path
           d="m 12.656,-427.764 c -0.004,6.098 -5.363,11.043 -11.978,11.043 -6.614,-10e-4 -11.977,-4.942 -11.977,-11.04 -0.001,-6.101 5.363,-11.043 11.977,-11.043 6.615,10e-4 11.977,4.942 11.978,11.04 z"
           style="fill:#dab1ef;fill-opacity:1;fill-rule:nonzero;stroke:#1a1a1a;stroke-opacity:1;stroke-width:4.942221;stroke-linecap:butt;stroke-linejoin:miter;stroke-miterlimit:4;stroke-dasharray:none"
           id="path3249" /></g><g
         id="g3251"
         transform="matrix(-0.0961716,-0.928976,-1,0.0705816,0,141.33188)"><path
           d="m 2.4,-562.754 c -0.004,6.098 -5.364,11.039 -11.978,11.038 -6.614,0.004 -11.977,-4.941 -11.978,-11.039 -10e-4,-6.098 5.363,-11.043 11.978,-11.043 6.614,10e-4 11.977,4.946 11.978,11.044 z"
           style="fill:#dab1ef;fill-opacity:1;fill-rule:nonzero;stroke:#1a1a1a;stroke-opacity:1;stroke-width:4.942221;stroke-linecap:butt;stroke-linejoin:miter;stroke-miterlimit:4;stroke-dasharray:none"
           id="path3253" /></g><g
         id="g3255"
         transform="matrix(0.112951,0.928976,1,-0.082896,0,141.33188)"><path
           d="m 26.026,490.892 c 0.001,6.09 -5.353,11.023 -11.959,11.023 -6.606,0 -11.962,-4.934 -11.963,-11.024 0.003,-6.09 5.357,-11.027 11.963,-11.027 6.606,0 11.958,4.939 11.959,11.028 z"
           style="fill:#dab1ef;fill-opacity:1;fill-rule:nonzero;stroke:#1a1a1a;stroke-opacity:1;stroke-width:4.935435;stroke-linecap:butt;stroke-linejoin:miter;stroke-miterlimit:4;stroke-dasharray:none"
           id="path3257" /></g><path
         d="m 423.855,17.672 c -6.097,0.429 -10.527,5.761 -9.89,11.906 0.637,6.145 6.094,10.777 12.191,10.348 6.098,-0.43 10.528,-5.762 9.891,-11.907 -0.637,-6.144 -6.094,-10.777 -12.192,-10.347 z"
         style="fill:#8fa6d7;fill-opacity:1;fill-rule:nonzero;stroke:none"
         id="path3259" /><g
         id="g3261"
         transform="matrix(-0.0961716,-0.928976,-1,0.0705816,0,141.33188)"><path
           d="m 100.179,-433.49 c 0.001,6.098 -5.363,11.043 -11.978,11.043 -6.614,-10e-4 -11.976,-4.942 -11.977,-11.04 -0.001,-6.097 5.363,-11.043 11.977,-11.042 6.615,0 11.977,4.942 11.978,11.039 z"
           style="fill:none;stroke:#1a1a1a;stroke-opacity:0.994118;stroke-width:4.942167;stroke-linecap:butt;stroke-linejoin:miter;stroke-miterlimit:4;stroke-dasharray:none"
           id="path3263" /></g><path
         d="m 358.359,39.906 c 6.09,-0.504 10.422,-5.891 9.676,-12.027 -0.746,-6.137 -6.289,-10.699 -12.379,-10.196 -6.09,0.504 -10.418,5.887 -9.672,12.024 0.746,6.137 6.286,10.703 12.375,10.199 z"
         style="fill:#8fa6d7;fill-opacity:1;fill-rule:nonzero;stroke:none"
         id="path3265" /><g
         id="g3267"
         transform="matrix(0.112951,0.928976,1,-0.082896,0,141.33188)"><path
           d="m -76.432,366.992 c 0.001,6.09 -5.357,11.027 -11.963,11.027 -6.606,0 -11.958,-4.938 -11.959,-11.028 -0.001,-6.089 5.353,-11.022 11.959,-11.022 6.606,0 11.962,4.934 11.963,11.023 z"
           style="fill:none;stroke:#1a1a1a;stroke-opacity:0.994118;stroke-width:4.935381;stroke-linecap:butt;stroke-linejoin:miter;stroke-miterlimit:4;stroke-dasharray:none"
           id="path3269" /></g><path
         d="m 494.34,39.906 c 6.09,-0.504 10.422,-5.891 9.676,-12.027 -0.746,-6.137 -6.289,-10.699 -12.379,-10.196 -6.09,0.504 -10.422,5.887 -9.676,12.024 0.746,6.137 6.289,10.703 12.379,10.199 z"
         style="fill:#8fa6d7;fill-opacity:1;fill-rule:nonzero;stroke:none"
         id="path3271" /><g
         id="g3273"
         transform="matrix(0.112951,0.928976,1,-0.082896,0,141.33188)"><path
           d="m -64.419,501.616 c 10e-4,6.09 -5.357,11.027 -11.963,11.027 -6.606,0 -11.958,-4.938 -11.959,-11.028 -0.001,-6.09 5.353,-11.027 11.959,-11.027 6.606,0 11.962,4.938 11.963,11.028 z"
           style="fill:none;stroke:#1a1a1a;stroke-opacity:0.994118;stroke-width:4.935381;stroke-linecap:butt;stroke-linejoin:miter;stroke-miterlimit:4;stroke-dasharray:none"
           id="path3275" /></g><g
         id="g3277"
         transform="matrix(1,0,0,-0.635885,0,141.33188)"><path
           d="m 428.895,145.632 19,26.065"
           style="fill:none;stroke:#1a1a1a;stroke-opacity:1;stroke-width:1.003231;stroke-linecap:butt;stroke-linejoin:miter;stroke-miterlimit:4;stroke-dasharray:none"
           id="path3279" /></g><g
         id="g3281"
         transform="matrix(1,0,0,-0.635885,0,141.33188)"><path
           d="m 428.609,135.748 28,35.949"
           style="fill:none;stroke:#1a1a1a;stroke-opacity:1;stroke-width:1.003231;stroke-linecap:butt;stroke-linejoin:miter;stroke-miterlimit:4;stroke-dasharray:none"
           id="path3283" /></g><g
         id="g3285"
         transform="matrix(1,0,0,-0.635885,0,141.33188)"><path
           d="m 429.531,114.678 43.758,59.458"
           style="fill:none;stroke:#1a1a1a;stroke-opacity:1;stroke-width:1.003231;stroke-linecap:butt;stroke-linejoin:miter;stroke-miterlimit:4;stroke-dasharray:none"
           id="path3287" /></g><g
         id="g3289"
         transform="matrix(1,0,0,-0.635885,0,141.33188)"><path
           d="m 429.129,124.372 37.797,50.397"
           style="fill:none;stroke:#1a1a1a;stroke-opacity:1;stroke-width:1.003231;stroke-linecap:butt;stroke-linejoin:miter;stroke-miterlimit:4;stroke-dasharray:none"
           id="path3291" /></g><g
         id="g3293"
         transform="matrix(1,0,0,-0.635885,0,141.33188)"><path
           d="m 428.031,101.943 53.137,69.969"
           style="fill:none;stroke:#1a1a1a;stroke-opacity:1;stroke-width:1.003231;stroke-linecap:butt;stroke-linejoin:miter;stroke-miterlimit:4;stroke-dasharray:none"
           id="path3295" /></g><g
         id="g3297"
         transform="matrix(1,0,0,-0.635885,0,141.33188)"><path
           d="m 426.66,87.182 58.188,77.752"
           style="fill:none;stroke:#1a1a1a;stroke-opacity:1;stroke-width:1.003231;stroke-linecap:butt;stroke-linejoin:miter;stroke-miterlimit:4;stroke-dasharray:none"
           id="path3299" /></g><g
         id="g3301"
         transform="matrix(1,0,0,-0.635885,0,141.33188)"><path
           d="m 430.602,80.271 58.187,77.752"
           style="fill:none;stroke:#1a1a1a;stroke-opacity:1;stroke-width:1.003231;stroke-linecap:butt;stroke-linejoin:miter;stroke-miterlimit:4;stroke-dasharray:none"
           id="path3303" /></g><g
         id="g3305"
         transform="matrix(1,0,0,-0.635885,0,141.33188)"><path
           d="m 430.602,66.768 58.187,77.753"
           style="fill:none;stroke:#1a1a1a;stroke-opacity:1;stroke-width:1.003231;stroke-linecap:butt;stroke-linejoin:miter;stroke-miterlimit:4;stroke-dasharray:none"
           id="path3307" /></g><g
         id="g3309"
         transform="matrix(1,0,0,-0.635885,0,141.33188)"><path
           d="m 434.035,58.826 58.188,77.752"
           style="fill:none;stroke:#1a1a1a;stroke-opacity:1;stroke-width:1.003231;stroke-linecap:butt;stroke-linejoin:miter;stroke-miterlimit:4;stroke-dasharray:none"
           id="path3311" /></g><g
         id="g3313"
         transform="matrix(1,0,0,-0.635885,0,141.33188)"><path
           d="m 439.086,51.362 51.621,69.33"
           style="fill:#000000;fill-opacity:1;fill-rule:nonzero;stroke:#1a1a1a;stroke-opacity:1;stroke-width:1.003231;stroke-linecap:butt;stroke-linejoin:miter;stroke-miterlimit:4;stroke-dasharray:none"
           id="path3315" /></g><g
         id="g3317"
         transform="matrix(1,0,0,-0.635885,0,141.33188)"><path
           d="m 445.996,47.799 43.758,59.458"
           style="fill:none;stroke:#1a1a1a;stroke-opacity:1;stroke-width:1.003231;stroke-linecap:butt;stroke-linejoin:miter;stroke-miterlimit:4;stroke-dasharray:none"
           id="path3319" /></g><g
         id="g3321"
         transform="matrix(1,0,0,-0.635885,0,141.33188)"><path
           d="m 454.23,47.246 37.797,50.397"
           style="fill:none;stroke:#1a1a1a;stroke-opacity:1;stroke-width:1.003231;stroke-linecap:butt;stroke-linejoin:miter;stroke-miterlimit:4;stroke-dasharray:none"
           id="path3323" /></g><g
         id="g3325"
         transform="matrix(1,0,0,-0.635885,0,141.33188)"><path
           d="m 462.465,45.256 28,35.949"
           style="fill:none;stroke:#1a1a1a;stroke-opacity:1;stroke-width:1.003231;stroke-linecap:butt;stroke-linejoin:miter;stroke-miterlimit:4;stroke-dasharray:none"
           id="path3327" /></g><g
         id="g3329"
         transform="matrix(1,0,0,-0.635885,0,141.33188)"><path
           d="m 472.215,48.929 19,26.059"
           style="fill:none;stroke:#1a1a1a;stroke-opacity:1;stroke-width:1.003231;stroke-linecap:butt;stroke-linejoin:miter;stroke-miterlimit:4;stroke-dasharray:none"
           id="path3331" /></g><g
         id="g3333"
         transform="matrix(1,0,0,-0.498428,0,141.33188)"><path
           d="m 518.121,223.319 c 0,31.059 -41.41,56.239 -92.496,56.239 -51.082,0 -92.492,-25.18 -92.492,-56.239 0,-31.066 41.41,-56.247 92.492,-56.247 51.086,0 92.496,25.181 92.496,56.247 z"
           style="fill:none;stroke:#8fa6d7;stroke-opacity:1;stroke-width:7.971733;stroke-linecap:butt;stroke-linejoin:round;stroke-miterlimit:4;stroke-dasharray:none"
           id="path3335" /></g><g
         id="g3337"
         transform="matrix(1,0,0,-0.498428,0,141.33188)"><path
           d="m 587.855,60.228 c 0,31.059 -41.41,56.247 -92.492,56.247 -51.086,0 -92.496,-25.188 -92.496,-56.247 0,-31.058 41.41,-56.239 92.496,-56.239 51.082,0 92.492,25.181 92.492,56.239 z"
           style="fill:none;stroke:#dab1ef;stroke-opacity:1;stroke-width:7.9706;stroke-linecap:butt;stroke-linejoin:round;stroke-miterlimit:4;stroke-dasharray:none"
           id="path3339" /></g><g
         id="g3341"
         transform="matrix(1,0,0,-0.964867,0,141.33188)"><path
           d="m 165.621,31.594 66.145,0.239"
           style="fill:#666666;fill-opacity:1;fill-rule:nonzero;stroke:#1a1a1a;stroke-opacity:1;stroke-width:4.642279;stroke-linecap:butt;stroke-linejoin:miter;stroke-miterlimit:4;stroke-dasharray:none"
           id="path3343" /></g><g
         id="g3345"
         transform="matrix(1,0,0,-0.964867,0,141.33188)"><path
           d="M 98.137,31.161 164.285,31.4"
           style="fill:#000000;fill-opacity:1;fill-rule:nonzero;stroke:#1a1a1a;stroke-opacity:1;stroke-width:4.642279;stroke-linecap:butt;stroke-linejoin:miter;stroke-miterlimit:4;stroke-dasharray:none"
           id="path3347" /></g><g
         id="g3349"
         transform="matrix(1,0,0,-0.964867,0,141.33188)"><path
           d="m 95.445,114.192 66.145,0.522"
           style="fill:#1a1a1a;fill-opacity:1;fill-rule:nonzero;stroke:#1a1a1a;stroke-opacity:1;stroke-width:4.713949;stroke-linecap:butt;stroke-linejoin:miter;stroke-miterlimit:4;stroke-dasharray:none"
           id="path3351" /></g><g
         id="g3353"
         transform="matrix(1,0,0,-0.964867,0,141.33188)"><path
           d="m 26.469,114.192 66.144,0.522"
           style="fill:#1a1a1a;fill-opacity:1;fill-rule:nonzero;stroke:#1a1a1a;stroke-opacity:1;stroke-width:4.713949;stroke-linecap:butt;stroke-linejoin:miter;stroke-miterlimit:4;stroke-dasharray:none"
           id="path3355" /></g><g
         id="g3357"
         transform="matrix(-0.0961716,-0.928976,-1,0.0705816,0,141.33188)"><path
           d="m 37.482,-101.007 c -0.003,6.098 -5.363,11.039 -11.977,11.042 -6.615,0 -11.978,-4.945 -11.978,-11.043 -10e-4,-6.098 5.363,-11.043 11.977,-11.042 6.615,0 11.977,4.945 11.978,11.043 z"
           style="fill:#dab1ef;fill-opacity:1;fill-rule:nonzero;stroke:#1a1a1a;stroke-opacity:1;stroke-width:4.942221;stroke-linecap:butt;stroke-linejoin:miter;stroke-miterlimit:4;stroke-dasharray:none"
           id="path3359" /></g><g
         id="g3361"
         transform="matrix(-0.0961716,-0.928976,-1,0.0705816,0,141.33188)"><path
           d="m 27.226,-236.001 c -0.004,6.098 -5.364,11.043 -11.978,11.042 -6.614,0 -11.977,-4.942 -11.978,-11.039 -10e-4,-6.102 5.364,-11.043 11.978,-11.043 6.614,0.001 11.977,4.942 11.978,11.04 z"
           style="fill:#dab1ef;fill-opacity:1;fill-rule:nonzero;stroke:#1a1a1a;stroke-opacity:1;stroke-width:4.942221;stroke-linecap:butt;stroke-linejoin:miter;stroke-miterlimit:4;stroke-dasharray:none"
           id="path3363" /></g><g
         id="g3365"
         transform="matrix(0.112951,0.928976,1,-0.082896,0,141.33188)"><path
           d="m -3.052,165.032 c 10e-4,6.09 -5.353,11.027 -11.959,11.027 -6.606,0 -11.962,-4.938 -11.963,-11.028 0.004,-6.09 5.357,-11.027 11.963,-11.027 6.606,0 11.958,4.938 11.959,11.028 z"
           style="fill:#dab1ef;fill-opacity:1;fill-rule:nonzero;stroke:#1a1a1a;stroke-opacity:1;stroke-width:4.935435;stroke-linecap:butt;stroke-linejoin:miter;stroke-miterlimit:4;stroke-dasharray:none"
           id="path3367" /></g><path
         d="m 94.711,17.672 c -6.098,0.429 -10.527,5.761 -9.891,11.906 0.637,6.145 6.098,10.777 12.196,10.348 6.097,-0.43 10.523,-5.762 9.89,-11.907 -0.636,-6.144 -6.097,-10.777 -12.195,-10.347 z"
         style="fill:#8fa6d7;fill-opacity:1;fill-rule:nonzero;stroke:none"
         id="path3369" /><g
         id="g3371"
         transform="matrix(-0.0961716,-0.928976,-1,0.0705816,0,141.33188)"><path
           d="m 125.005,-106.733 c 0.001,6.098 -5.363,11.043 -11.977,11.043 -6.615,-0.001 -11.977,-4.946 -11.978,-11.044 -10e-4,-6.097 5.363,-11.039 11.977,-11.042 6.615,0 11.977,4.946 11.978,11.043 z"
           style="fill:none;stroke:#1a1a1a;stroke-opacity:0.994118;stroke-width:4.942167;stroke-linecap:butt;stroke-linejoin:miter;stroke-miterlimit:4;stroke-dasharray:none"
           id="path3373" /></g><path
         d="M 29.219,39.906 C 35.309,39.402 39.637,34.015 38.891,27.879 38.145,21.742 32.605,17.18 26.516,17.683 20.426,18.187 16.094,23.57 16.84,29.707 17.586,35.844 23.129,40.41 29.219,39.906 z"
         style="fill:#8fa6d7;fill-opacity:1;fill-rule:nonzero;stroke:none"
         id="path3375" /><g
         id="g3377"
         transform="matrix(0.112951,0.928976,1,-0.082896,0,141.33188)"><path
           d="m -105.509,41.136 c 0,6.09 -5.358,11.023 -11.964,11.023 -6.606,0 -11.957,-4.934 -11.958,-11.024 -10e-4,-6.09 5.353,-11.027 11.958,-11.027 6.606,0 11.963,4.938 11.964,11.028 z"
           style="fill:none;stroke:#1a1a1a;stroke-opacity:0.994118;stroke-width:4.935381;stroke-linecap:butt;stroke-linejoin:miter;stroke-miterlimit:4;stroke-dasharray:none"
           id="path3379" /></g><path
         d="m 165.195,39.906 c 6.09,-0.504 10.422,-5.891 9.676,-12.027 -0.746,-6.137 -6.289,-10.699 -12.379,-10.196 -6.09,0.504 -10.418,5.887 -9.672,12.024 0.746,6.137 6.285,10.703 12.375,10.199 z"
         style="fill:#8fa6d7;fill-opacity:1;fill-rule:nonzero;stroke:none"
         id="path3381" /><g
         id="g3383"
         transform="matrix(0.112951,0.928976,1,-0.082896,0,141.33188)"><path
           d="m -93.497,175.756 c 0.001,6.09 -5.357,11.027 -11.963,11.027 -6.606,0 -11.958,-4.939 -11.959,-11.028 -0.001,-6.09 5.354,-11.023 11.959,-11.023 6.606,0 11.962,4.934 11.963,11.024 z"
           style="fill:none;stroke:#1a1a1a;stroke-opacity:0.994118;stroke-width:4.935381;stroke-linecap:butt;stroke-linejoin:miter;stroke-miterlimit:4;stroke-dasharray:none"
           id="path3385" /></g><g
         id="g3387"
         transform="matrix(1,0,0,-0.964867,0,141.33188)"><path
           d="m 268.785,61.14 0.153,13.595 50.429,-1.996 0.492,10.109 34.895,-17.149 -35.922,-14.554 0.031,11.186 -50.078,-1.191"
           style="fill:#b6d770;fill-opacity:1;fill-rule:nonzero;stroke:#000000;stroke-opacity:1;stroke-width:3.844622;stroke-linecap:butt;stroke-linejoin:miter;stroke-miterlimit:4;stroke-dasharray:none"
           id="path3389" /></g><g
         id="g3391"
         transform="matrix(1,0,0,-0.498428,0,141.33188)"><path
           d="m 188.977,223.319 c 0,31.059 -41.411,56.239 -92.493,56.239 -51.086,0 -92.496,-25.18 -92.496,-56.239 0,-31.066 41.41,-56.247 92.496,-56.247 51.082,0 92.493,25.181 92.493,56.247 z"
           style="fill:none;stroke:#8fa6d7;stroke-opacity:1;stroke-width:7.971733;stroke-linecap:butt;stroke-linejoin:round;stroke-miterlimit:4;stroke-dasharray:none"
           id="path3393" /></g><g
         id="g3395"
         transform="matrix(1,0,0,-0.498428,0,141.33188)"><path
           d="m 258.715,60.228 c 0,31.059 -41.414,56.247 -92.496,56.247 -51.082,0 -92.496,-25.188 -92.496,-56.247 0,-31.058 41.414,-56.239 92.496,-56.239 51.082,0 92.496,25.181 92.496,56.239 z"
           style="fill:none;stroke:#dab1ef;stroke-opacity:1;stroke-width:7.9706;stroke-linecap:butt;stroke-linejoin:round;stroke-miterlimit:4;stroke-dasharray:none"
           id="path3397" /></g></g></g></svg>