<?xml version="1.0" encoding="UTF-8" standalone="no"?>
<!-- Created with Inkscape (http://www.inkscape.org/) -->

<svg
   xmlns:dc="http://purl.org/dc/elements/1.1/"
   xmlns:cc="http://creativecommons.org/ns#"
   xmlns:rdf="http://www.w3.org/1999/02/22-rdf-syntax-ns#"
   xmlns:svg="http://www.w3.org/2000/svg"
   xmlns="http://www.w3.org/2000/svg"
   xmlns:sodipodi="http://sodipodi.sourceforge.net/DTD/sodipodi-0.dtd"
   xmlns:inkscape="http://www.inkscape.org/namespaces/inkscape"
   width="744.09448819"
   height="1052.3622047"
   id="svg3206"
   version="1.1"
   inkscape:version="0.48.1 r9760"
   sodipodi:docname="New document 5">
  <defs
     id="defs3208" />
  <sodipodi:namedview
     id="base"
     pagecolor="#ffffff"
     bordercolor="#666666"
     borderopacity="1.0"
     inkscape:pageopacity="0.0"
     inkscape:pageshadow="2"
     inkscape:zoom="0.49497475"
     inkscape:cx="375"
     inkscape:cy="536.16244"
     inkscape:document-units="px"
     inkscape:current-layer="layer1"
     showgrid="false"
     inkscape:window-width="721"
     inkscape:window-height="742"
     inkscape:window-x="558"
     inkscape:window-y="26"
     inkscape:window-maximized="0" />
  <metadata
     id="metadata3211">
    <rdf:RDF>
      <cc:Work
         rdf:about="">
        <dc:format>image/svg+xml</dc:format>
        <dc:type
           rdf:resource="http://purl.org/dc/dcmitype/StillImage" />
        <dc:title></dc:title>
      </cc:Work>
    </rdf:RDF>
  </metadata>
  <g
     inkscape:label="Layer 1"
     inkscape:groupmode="layer"
     id="layer1">
    <path
       inkscape:connector-curvature="0"
       d="m 528.92911,724.29174 c 0,178.36114 -78.86867,322.95246 -176.15785,322.95246 -97.28918,0 -176.14731,-144.59132 -176.14731,-322.95246 0,-178.36115 78.85813,-322.95245 176.14731,-322.95245 97.28918,0 176.15785,144.5913 176.15785,322.95245 z"
       style="fill:#008080;fill-opacity:0.28870299;fill-rule:nonzero;stroke:none"
       id="path3052" />
    <g
       id="g3054"
       transform="matrix(2.4181106,0,0,2.4699996,137.53337,325.02066)"
       style="fill:#8fa6d7;fill-opacity:0.39719626">
      <path
         inkscape:connector-curvature="0"
         d="m 161.86,161.648 c 0,72.211 -32.616,130.75 -72.849,130.75 -40.233,0 -72.845,-58.539 -72.845,-130.75 0,-72.21 32.612,-130.75 72.845,-130.75 40.233,0 72.849,58.54 72.849,130.75 z"
         style="fill:#8fa6d7;stroke:#000000;stroke-width:3.60929108000000021;stroke-linecap:butt;stroke-linejoin:round;stroke-miterlimit:4;stroke-opacity:1;stroke-dasharray:none;fill-opacity:0.39719626"
         id="path3056" />
    </g>
    <path
       inkscape:connector-curvature="0"
       d="m 498.09128,795.55616 c 0,137.32457 -65.46355,248.65984 -146.20509,248.65984 -80.75208,0 -146.21563,-111.33527 -146.21563,-248.65984 0,-137.32703 65.46355,-248.64992 146.21563,-248.64992 80.74154,0 146.20509,111.32289 146.20509,248.64992 z"
       style="fill:#008080;fill-opacity:0.64435102;fill-rule:nonzero;stroke:none"
       id="path3058" />
    <g
       id="g3060"
       transform="matrix(2.6068174,0,0,2.4699996,137.53337,325.02066)"
       style="fill:#8fa6d7;fill-opacity:0.58878505">
      <path
         inkscape:connector-curvature="0"
         d="m 138.313,190.5 c 0,55.598 -25.112,100.672 -56.085,100.672 -30.978,0 -56.09,-45.074 -56.09,-100.672 0,-55.598 25.112,-100.668 56.09,-100.668 30.973,0 56.085,45.07 56.085,100.668 z"
         style="fill:#8fa6d7;stroke:#000000;stroke-width:2.77890396000000006;stroke-linecap:butt;stroke-linejoin:round;stroke-miterlimit:4;stroke-opacity:1;stroke-dasharray:none;fill-opacity:0.58878505"
         id="path3062" />
    </g>
    <g
       id="g3072"
       transform="matrix(2.6341361,0,0,2.2290808,137.53337,325.02066)"
       style="display:inline;stroke:#000000;stroke-opacity:1;fill:#8fa6d7;fill-opacity:1">
      <path
         inkscape:connector-curvature="0"
         d="m 129.188,240.787 c 0,45.271 -20.45,81.972 -45.672,81.972 -25.223,0 -45.668,-36.701 -45.668,-81.972 0,-45.271 20.445,-81.972 45.668,-81.972 25.222,0 45.672,36.701 45.672,81.972 z"
         style="fill:#8fa6d7;fill-opacity:1;fill-rule:nonzero;stroke:#000000;stroke-width:2.26278090000000009;stroke-linecap:butt;stroke-linejoin:round;stroke-miterlimit:4;stroke-opacity:1;stroke-dasharray:none"
         id="path3074" />
    </g>
  </g>
</svg>
